<svg xmlns="http://www.w3.org/2000/svg" viewBox="0 0 100 100" width="100" height="100">
  <rect x="0" y="0" width="100" height="100" rx="24" fill="#FAD201"/>
  <g transform="translate(28 28) scale(0.29)">
    <path fill="#2C3C2B" d="M0,48.11c0-6.71,1.26-12.99,3.79-18.83,2.53-5.84,5.97-10.94,10.32-15.29s9.45-7.77,15.29-10.26c5.84-2.49,12.07-3.73,18.71-3.73v48.11H0ZM29.4,96.09c-5.84-2.49-10.94-5.91-15.29-10.26-4.35-4.35-7.79-9.45-10.32-15.29S0,58.42,0,51.71h48.11v48.11c-6.63,0-12.87-1.24-18.71-3.73ZM0,151.78v-48.11h48.11v48.11H0ZM51.84,48.11V0h48.36v48.11h-48.36ZM51.84,99.82v-48.11h48.36v48.11h-48.36ZM51.84,151.78v-48.11h48.36v48.11h-48.36ZM103.55,48.11V0h48.36v48.11h-48.36ZM103.55,99.82v-48.11c6.71,0,12.99,1.26,18.83,3.79,5.84,2.53,10.96,5.97,15.35,10.32,4.39,4.35,7.85,9.45,10.38,15.29s3.79,12.08,3.79,18.71h-48.36ZM148.11,122.38c-2.53,5.84-5.99,10.94-10.38,15.29s-9.51,7.79-15.35,10.32c-5.84,2.53-12.12,3.79-18.83,3.79v-48.11h48.36c0,6.63-1.26,12.87-3.79,18.71Z"/>
  </g>
</svg>
